<?xml version="1.0" standalone="no"?>
<!DOCTYPE svg PUBLIC "-//W3C//DTD SVG 20010904//EN"
 "http://www.w3.org/TR/2001/REC-SVG-20010904/DTD/svg10.dtd">
<svg version="1.0" xmlns="http://www.w3.org/2000/svg"
 width="146.000000pt" height="144.000000pt" viewBox="0 0 146.000000 144.000000"
 preserveAspectRatio="xMidYMid meet">

<g transform="translate(0.000000,144.000000) scale(0.100000,-0.100000)"
fill="#000000" stroke="none">
<path d="M0 720 l0 -720 730 0 730 0 0 720 0 720 -730 0 -730 0 0 -720z m589
405 c38 -19 64 -75 56 -119 -9 -47 -53 -86 -104 -93 l-42 -6 17 -25 c13 -19
15 -38 10 -82 -7 -58 -7 -58 31 -89 43 -36 140 -71 195 -71 52 0 95 20 146 68
39 36 43 43 37 74 -9 45 16 104 49 120 21 9 33 8 65 -7 43 -19 61 -48 82 -128
9 -36 15 -47 27 -42 48 18 79 -32 89 -139 5 -69 4 -78 -21 -120 -17 -30 -41
-53 -67 -67 -37 -19 -42 -19 -64 -5 -14 9 -42 16 -64 16 -71 0 -71 0 -71 121
0 60 -4 109 -9 109 -4 0 -20 -9 -34 -20 -39 -31 -106 -58 -163 -65 -56 -8
-157 9 -189 31 -11 8 -27 14 -37 14 -16 0 -18 -10 -18 -81 0 -111 -5 -119 -86
-119 -109 0 -163 47 -150 134 4 22 10 75 15 116 25 209 67 278 160 268 29 -4
31 -3 15 9 -93 68 -54 213 59 213 21 0 51 -7 66 -15z m391 0 c74 -38 78 -150
8 -199 -28 -20 -90 -21 -126 -2 -47 25 -70 88 -49 139 29 69 101 96 167 62z
m-660 -825 l0 -80 -25 16 c-22 15 -25 23 -25 80 0 62 1 64 25 64 25 0 25 -1
25 -80z m82 43 l3 -38 24 38 c19 31 28 37 57 37 l35 0 -30 -43 -30 -44 23 -64
c42 -115 41 -110 7 -98 -25 9 -33 20 -46 67 -16 52 -18 55 -31 37 -8 -10 -14
-27 -14 -37 0 -21 -4 -22 -31 -8 -17 9 -19 22 -19 100 0 89 0 90 24 90 21 0
25 -5 28 -37z m268 7 c0 -28 -2 -30 -40 -30 -33 0 -40 -3 -40 -20 0 -14 9 -21
35 -26 31 -5 35 -10 35 -36 0 -28 -1 -29 -35 -22 -34 6 -35 5 -35 -25 0 -30 2
-31 40 -31 39 0 40 -1 40 -35 0 -40 -3 -41 -80 -24 l-50 11 0 134 0 134 65 0
65 0 0 -30z m101 -37 l24 -68 3 68 c3 64 4 67 27 67 l25 0 0 -139 c0 -129 -1
-139 -20 -144 -24 -6 -32 4 -58 73 -23 61 -24 60 -26 -25 -1 -54 -3 -60 -23
-63 -23 -3 -23 -3 -23 147 l0 151 23 0 c20 0 27 -11 48 -67z m235 46 c15 -16
19 -36 19 -88 0 -84 -24 -122 -92 -145 -26 -9 -48 -16 -50 -16 -2 0 -3 61 -3
135 l0 135 53 0 c42 0 58 -5 73 -21z m94 -31 c0 -65 12 -88 37 -72 13 8 19 26
21 68 3 52 5 56 27 56 22 0 25 -4 25 -40 0 -54 -21 -93 -65 -120 -69 -43 -92
-19 -94 98 -1 60 0 62 24 62 23 0 25 -3 25 -52z"/>
<path d="M1000 860 c-18 -12 -2 -12 25 0 13 6 15 9 5 9 -8 0 -22 -4 -30 -9z"/>
<path d="M1076 815 c4 -11 13 -40 20 -65 9 -31 13 -37 13 -20 0 14 -8 43 -19
65 -11 22 -17 31 -14 20z"/>
<path d="M980 791 c0 -6 4 -13 10 -16 6 -3 7 1 4 9 -7 18 -14 21 -14 7z"/>
<path d="M1013 660 c0 -36 2 -50 4 -32 2 17 2 47 0 65 -2 17 -4 3 -4 -33z"/>
<path d="M1103 610 c0 -25 2 -35 4 -22 2 12 2 32 0 45 -2 12 -4 2 -4 -23z"/>
<path d="M995 530 c-4 -17 -5 -34 -2 -36 2 -3 7 10 11 27 8 42 0 50 -9 9z"/>
<path d="M1028 433 c7 -3 16 -2 19 1 4 3 -2 6 -13 5 -11 0 -14 -3 -6 -6z"/>
<path d="M937 323 c-4 -3 -7 -35 -7 -70 0 -49 3 -63 15 -63 34 0 49 95 19 124
-18 18 -18 18 -27 9z"/>
</g>
</svg>
