<?xml version="1.0" standalone="no"?>
<!DOCTYPE svg PUBLIC "-//W3C//DTD SVG 20010904//EN"
 "http://www.w3.org/TR/2001/REC-SVG-20010904/DTD/svg10.dtd">
<svg version="1.0" xmlns="http://www.w3.org/2000/svg"
 width="604.000000pt" height="600.000000pt" viewBox="0 0 604.000000 600.000000"
 preserveAspectRatio="xMidYMid meet">

<g transform="translate(0.000000,600.000000) scale(0.100000,-0.100000)"
fill="#000000" stroke="none">
<path d="M0 3000 l0 -3000 3020 0 3020 0 0 3000 0 3000 -3020 0 -3020 0 0
-3000z m2333 1739 c171 -57 287 -184 327 -358 24 -102 -7 -299 -56 -361 -10
-13 -44 -50 -74 -83 -111 -119 -310 -174 -470 -130 -24 6 -24 6 -10 -15 81
-114 130 -192 130 -205 0 -9 5 -19 10 -22 26 -16 3 -221 -34 -307 -9 -21 -16
-57 -16 -82 0 -38 6 -50 41 -88 192 -205 269 -256 514 -336 181 -59 255 -78
370 -93 104 -15 121 -14 159 4 35 17 175 57 200 57 9 0 16 4 16 8 0 5 24 21
54 35 30 15 79 51 108 79 29 29 77 68 105 86 34 22 69 58 105 108 82 117 81
115 68 192 -20 113 -1 299 39 380 26 54 121 142 170 157 13 4 54 7 90 7 56 0
79 -7 151 -40 47 -22 101 -46 120 -55 25 -10 42 -28 58 -60 12 -25 29 -48 37
-51 8 -3 15 -12 15 -21 0 -8 5 -15 10 -15 6 0 9 -3 8 -7 -4 -16 13 -83 21 -83
10 0 27 -41 37 -85 3 -16 14 -49 25 -72 10 -24 19 -57 19 -75 0 -18 7 -46 15
-61 8 -16 20 -55 27 -87 l12 -58 39 14 c118 42 256 -22 286 -133 6 -23 15 -43
19 -45 15 -6 50 -73 61 -116 7 -24 14 -163 17 -324 5 -290 2 -323 -36 -378 -9
-14 -23 -42 -29 -62 -7 -20 -18 -42 -26 -48 -8 -6 -27 -35 -43 -63 -44 -77
-84 -109 -218 -176 -109 -55 -127 -61 -183 -61 -71 0 -129 24 -161 68 l-21 28
-171 2 c-94 1 -176 6 -182 11 -6 4 -29 14 -51 21 -22 7 -43 15 -47 19 -5 4
-10 202 -13 440 -3 300 -8 438 -16 447 -6 8 -24 14 -40 14 -30 0 -33 -2 -133
-87 -33 -29 -68 -53 -77 -53 -23 0 -59 -20 -121 -67 -53 -41 -109 -63 -160
-63 -16 0 -28 -4 -28 -9 0 -5 -13 -12 -30 -16 -16 -4 -32 -11 -35 -16 -4 -5
-37 -9 -76 -9 -38 0 -77 -4 -87 -9 -97 -54 -234 -65 -367 -31 -43 11 -97 20
-119 20 -23 0 -70 11 -106 24 -88 33 -118 43 -166 55 -23 6 -58 25 -79 41 -21
17 -50 33 -64 37 -14 3 -46 15 -70 26 -40 18 -45 18 -60 3 -22 -23 -31 -118
-40 -456 -4 -157 -12 -296 -16 -310 -18 -59 -23 -60 -346 -60 -272 0 -298 2
-320 18 -13 10 -49 33 -80 50 -88 50 -141 107 -193 209 -20 41 -27 73 -32 151
-8 118 4 181 51 267 32 59 33 62 39 235 10 259 32 455 60 535 7 22 19 67 26
100 49 246 165 492 247 522 15 6 65 25 110 42 94 36 181 41 273 16 98 -26 113
-19 40 20 -95 52 -164 124 -212 223 -35 73 -41 95 -46 170 -13 244 127 444
355 507 77 21 203 18 276 -6z m1578 1 c67 -13 238 -94 239 -114 0 -5 16 -27
36 -49 106 -116 142 -325 84 -480 -77 -207 -265 -328 -489 -315 -248 15 -434
200 -448 448 -12 193 64 345 219 443 111 70 229 92 359 67z m-2591 -3480 c0
-181 -2 -330 -5 -330 -7 0 -41 21 -127 78 l-68 44 0 269 0 269 100 0 100 0 0
-330z m350 175 c0 -97 4 -155 10 -155 6 0 10 7 10 15 0 8 3 15 8 15 4 0 16 16
26 35 11 19 22 35 26 35 4 0 10 8 14 18 3 9 16 33 28 53 13 20 37 59 53 88
l30 51 133 0 c72 0 132 -4 132 -8 0 -9 -118 -204 -129 -212 -3 -3 -11 -14 -18
-25 -7 -11 -28 -45 -47 -76 l-35 -56 20 -54 c24 -63 122 -341 182 -516 23 -67
38 -125 35 -128 -4 -4 -28 1 -55 10 -26 9 -57 20 -68 24 -11 4 -42 18 -68 32
-46 22 -50 28 -73 94 -13 39 -24 77 -24 85 1 16 -57 204 -71 232 -5 10 -9 25
-9 33 0 23 -7 19 -60 -37 l-50 -52 0 -104 0 -104 -24 6 c-12 3 -60 27 -105 53
l-81 48 0 377 0 378 105 0 105 0 0 -155z m1100 25 l0 -131 -170 7 -170 7 0
-95 0 -95 98 -6 c53 -4 123 -7 155 -7 l57 0 0 -125 0 -125 -38 0 c-21 0 -63 4
-93 9 -30 5 -82 12 -116 16 l-63 6 0 -108 c0 -59 4 -113 8 -119 4 -6 36 -14
72 -18 36 -3 109 -14 162 -23 l97 -16 6 -61 c4 -34 5 -92 3 -131 l-3 -70 -60
3 c-53 3 -135 16 -270 42 -69 14 -200 51 -209 60 -11 11 -11 -16 -8 593 l2
517 270 0 270 0 0 -130z m364 -25 c28 -82 54 -152 57 -155 3 -3 12 -23 19 -45
22 -72 92 -245 101 -251 11 -6 10 -33 9 319 l-1 287 101 0 100 0 0 -584 0
-584 -32 -7 c-18 -4 -64 -8 -102 -9 l-69 -1 -20 50 c-11 28 -27 68 -37 90 -16
37 -48 124 -116 320 -65 185 -63 189 -64 -177 0 -305 -1 -328 -17 -329 -10 0
-44 -2 -76 -4 -31 -3 -67 -1 -80 4 l-22 8 0 612 0 612 99 -3 99 -3 51 -150z
m963 123 c58 -38 102 -107 130 -202 32 -110 33 -328 2 -448 -38 -152 -125
-275 -229 -324 -78 -38 -118 -54 -129 -54 -6 0 -19 -4 -29 -9 -22 -12 -151
-51 -169 -51 -7 0 -14 6 -15 13 -1 6 -2 259 -3 560 l0 548 200 -3 c198 -3 200
-3 242 -30z m471 -226 c-3 -242 -2 -260 16 -277 40 -41 128 -12 174 57 l27 41
3 219 3 218 100 0 99 0 0 -165 c0 -90 -5 -187 -11 -214 -24 -114 -160 -265
-289 -323 -19 -9 -56 -25 -82 -37 -61 -27 -131 -28 -168 -1 -17 12 -38 43 -51
78 -22 54 -23 74 -27 360 l-4 302 107 0 106 0 -3 -258z"/>
<path d="M4180 3603 c-31 -6 -102 -62 -94 -74 8 -14 20 -11 52 16 26 22 39 25
103 25 66 -1 77 -4 105 -28 54 -47 143 -202 144 -249 0 -10 7 -27 15 -37 8
-11 15 -29 15 -40 0 -12 7 -29 14 -39 7 -9 14 -45 15 -78 1 -33 6 -69 11 -79
13 -24 14 -534 1 -558 -15 -29 -24 -109 -13 -128 9 -15 12 -11 23 26 9 32 14
137 15 365 2 299 -6 435 -25 460 -5 5 -11 26 -15 46 -7 39 -32 95 -46 104 -4
3 -13 28 -20 55 -8 33 -20 56 -35 66 -13 8 -26 26 -29 39 -18 70 -139 126
-236 108z"/>
<path d="M4036 3428 c-12 -45 -5 -70 39 -156 45 -85 79 -131 90 -120 3 3 -1
18 -10 34 -8 16 -15 32 -15 36 0 4 -18 38 -41 74 -34 57 -40 74 -37 111 3 46
-15 61 -26 21z"/>
<path d="M4183 2850 c1 -281 -11 -479 -29 -515 -6 -11 -17 -49 -24 -85 -7 -36
-21 -93 -33 -128 -30 -94 -20 -179 29 -239 43 -52 56 -51 20 2 -14 20 -28 52
-32 71 -3 19 -10 34 -15 34 -4 0 -1 12 7 28 7 15 14 44 14 64 0 20 5 40 10 43
6 3 10 21 10 38 0 18 7 41 15 51 8 11 15 37 15 59 0 21 5 47 11 58 18 34 31
193 36 423 2 144 0 223 -7 230 -5 5 -10 28 -11 51 -1 22 -4 51 -9 65 -4 14 -7
-99 -7 -250z"/>
<path d="M4526 2269 c-2 -8 -7 -27 -9 -44 -3 -16 -10 -56 -17 -88 -13 -56 -9
-80 9 -61 15 15 42 187 31 198 -6 6 -11 4 -14 -5z"/>
<path d="M4464 2003 c-7 -25 -8 -43 -3 -43 14 0 21 24 17 57 -3 26 -4 25 -14
-14z"/>
<path d="M4396 1864 c-4 -9 -4 -19 -1 -22 2 -3 7 3 11 12 4 9 4 19 1 22 -2 3
-7 -3 -11 -12z"/>
<path d="M4185 1830 c3 -5 14 -10 23 -10 15 0 15 2 2 10 -20 13 -33 13 -25 0z"/>
<path d="M4335 1824 c-13 -10 -35 -14 -63 -12 -25 2 -41 -1 -39 -7 2 -5 24
-11 49 -13 37 -2 51 2 74 22 32 28 14 36 -21 10z"/>
<path d="M3878 1353 c-17 -4 -18 -26 -18 -289 l0 -284 27 0 c46 0 106 44 133
97 24 45 25 58 25 208 0 146 -2 164 -23 206 -18 37 -30 48 -61 57 -39 12 -53
13 -83 5z"/>
</g>
</svg>
